<svg width="51" height="52" viewBox="0 0 51 52" fill="none" xmlns="http://www.w3.org/2000/svg">
<path d="M25.6395 49.7594C22.5036 49.7594 19.3983 49.1418 16.5011 47.9417C13.6039 46.7416 10.9714 44.9827 8.75397 42.7652C6.53654 40.5478 4.77757 37.9153 3.5775 35.0181C2.37743 32.1209 1.75977 29.0156 1.75977 25.8797C1.75977 22.7438 2.37743 19.6386 3.5775 16.7413C4.77757 13.8441 6.53654 11.2116 8.75397 8.99421C10.9714 6.77677 13.6039 5.0178 16.5011 3.81773C19.3983 2.61767 22.5036 2 25.6395 2C31.9728 2 38.0467 4.51589 42.525 8.99421C47.0033 13.4725 49.5192 19.5464 49.5192 25.8797C49.5192 32.213 47.0033 38.2869 42.525 42.7652C38.0467 47.2435 31.9728 49.7594 25.6395 49.7594Z" fill="#536B8B" stroke="#536B8B" stroke-width="2.54717" stroke-linecap="round" stroke-linejoin="round"/>
<path d="M20.4394 20.3595C19.1658 19.9354 15.7695 19.5098 12.7979 20.3595" stroke="white" stroke-width="2.54717" stroke-linecap="round" stroke-linejoin="round"/>
<path d="M39.1181 20.3595C37.8445 19.9354 34.4483 19.5098 31.4766 20.3595" stroke="white" stroke-width="2.54717" stroke-linecap="round" stroke-linejoin="round"/>
<path d="M31.9012 33.9455C30.6276 33.9459 20.8634 33.9453 19.5898 33.9453" stroke="white" stroke-width="2.54717" stroke-linecap="round" stroke-linejoin="round"/>
</svg>
