<svg width="51" height="52" viewBox="0 0 51 52" fill="none" xmlns="http://www.w3.org/2000/svg">
<path d="M25.3988 49.7594C22.2628 49.7594 19.1576 49.1418 16.2604 47.9417C13.3632 46.7416 10.7307 44.9827 8.51325 42.7652C6.29581 40.5478 4.53685 37.9153 3.33678 35.0181C2.13671 32.1209 1.51904 29.0156 1.51904 25.8797C1.51904 22.7438 2.13671 19.6386 3.33678 16.7413C4.53685 13.8441 6.29581 11.2116 8.51325 8.99421C10.7307 6.77677 13.3632 5.0178 16.2604 3.81773C19.1576 2.61767 22.2628 2 25.3988 2C31.7321 2 37.806 4.51589 42.2843 8.99421C46.7626 13.4725 49.2785 19.5464 49.2785 25.8797C49.2785 32.213 46.7626 38.2869 42.2843 42.7652C37.806 47.2435 31.7321 49.7594 25.3988 49.7594Z" fill="#FF5E5E" stroke="#FF5E5E" stroke-width="2.54717" stroke-linecap="round" stroke-linejoin="round"/>
<path d="M19.0308 34.7949C19.8608 34.5261 20.8516 34.3125 21.945 34.1668C23.0385 34.021 24.2126 33.9459 25.3987 33.9459C26.5847 33.9459 27.7589 34.021 28.8523 34.1668C29.9458 34.3125 30.9365 34.5261 31.7666 34.7949" stroke="white" stroke-width="2.54717" stroke-linecap="round" stroke-linejoin="round"/>
<path d="M20.1982 21.1311C18.8715 23.7844 13.5649 23.7844 12.2383 21.1311" stroke="white" stroke-width="2.54717" stroke-linecap="round" stroke-linejoin="round"/>
<path d="M38.7719 21.1311C37.4453 23.7844 32.1387 23.7844 30.812 21.1311" stroke="white" stroke-width="2.54717" stroke-linecap="round" stroke-linejoin="round"/>
</svg>
