<svg width="52" height="52" viewBox="0 0 52 52" fill="none" xmlns="http://www.w3.org/2000/svg">
<path d="M25.8797 49.7594C22.7438 49.7594 19.6386 49.1418 16.7413 47.9417C13.8441 46.7416 11.2116 44.9827 8.99421 42.7652C6.77677 40.5478 5.0178 37.9153 3.81774 35.0181C2.61767 32.1209 2 29.0156 2 25.8797C2 22.7438 2.61767 19.6386 3.81774 16.7413C5.0178 13.8441 6.77677 11.2116 8.99421 8.99421C11.2116 6.77677 13.8441 5.0178 16.7413 3.81773C19.6386 2.61767 22.7438 2 25.8797 2C32.213 2 38.2869 4.51589 42.7652 8.99421C47.2435 13.4725 49.7594 19.5464 49.7594 25.8797C49.7594 32.213 47.2435 38.2869 42.7652 42.7652C38.2869 47.2435 32.213 49.7594 25.8797 49.7594Z" fill="#00D487" stroke="#00D487" stroke-width="2.54717" stroke-linecap="round" stroke-linejoin="round"/>
<path d="M20.5732 20.574C19.2465 17.9207 13.9399 17.9207 12.6133 20.574" stroke="white" stroke-width="2.54717" stroke-linecap="round" stroke-linejoin="round"/>
<path d="M39.1464 20.574C37.8198 17.9207 32.5132 17.9207 31.1865 20.574" stroke="white" stroke-width="2.54717" stroke-linecap="round" stroke-linejoin="round"/>
<path d="M32.5131 33.8379C31.6484 34.7204 30.6164 35.4215 29.4774 35.9001C28.3384 36.3787 27.1153 36.6252 25.8798 36.6252C24.6444 36.6252 23.4213 36.3787 22.2823 35.9001C21.1433 35.4215 20.1112 34.7204 19.2466 33.8379" stroke="white" stroke-width="2.54717" stroke-linecap="round" stroke-linejoin="round"/>
</svg>
