<svg width="106" height="106" viewBox="0 0 106 106" fill="none" xmlns="http://www.w3.org/2000/svg">
<circle cx="53" cy="53" r="53" fill="white"/>
<g clip-path="url(#clip0_40_1445)">
<path d="M52.9998 80.909C49.3346 80.909 45.7054 80.1871 42.3193 78.7845C38.9331 77.3819 35.8564 75.3261 33.2647 72.7345C30.6731 70.1428 28.6173 67.0661 27.2147 63.6799C25.8121 60.2938 25.0902 56.6646 25.0902 52.9994C25.0902 49.3343 25.8121 45.705 27.2147 42.3189C28.6173 38.9327 30.6731 35.856 33.2647 33.2644C35.8564 30.6727 38.9331 28.6169 42.3193 27.2143C45.7054 25.8117 49.3346 25.0898 52.9998 25.0898C60.4019 25.0898 67.5008 28.0303 72.7348 33.2644C77.9689 38.4984 80.9094 45.5973 80.9094 52.9994C80.9094 60.4015 77.9689 67.5004 72.7348 72.7345C67.5008 77.9685 60.4019 80.909 52.9998 80.909Z" stroke="#539CFF" stroke-width="3.10106" stroke-linecap="round" stroke-linejoin="round"/>
<path d="M46.7979 46.7985C45.2474 43.6974 39.0453 43.6974 37.4948 46.7985" stroke="#539CFF" stroke-width="3.10106" stroke-linecap="round" stroke-linejoin="round"/>
<path d="M68.5051 46.7985C66.9546 43.6974 60.7524 43.6974 59.2019 46.7985" stroke="#539CFF" stroke-width="3.10106" stroke-linecap="round" stroke-linejoin="round"/>
<path d="M60.7526 62.3047C59.7421 63.3361 58.5358 64.1555 57.2046 64.7149C55.8734 65.2743 54.4439 65.5624 53 65.5624C51.556 65.5624 50.1265 65.2743 48.7953 64.7149C47.4641 64.1555 46.2579 63.3361 45.2473 62.3047" stroke="#539CFF" stroke-width="3.10106" stroke-linecap="round" stroke-linejoin="round"/>
</g>
<defs>
<clipPath id="clip0_40_1445">
<rect width="74.4255" height="74.4255" fill="white" transform="translate(15.7872 15.7871)"/>
</clipPath>
</defs>
</svg>
